<svg width="180" height="180" viewBox="0 0 180 180" xmlns="http://www.w3.org/2000/svg">
  <g fill="#795548">
    <circle cx="10" cy="10" r="4" />
    <circle cx="30" cy="10" r="4" />
    <circle cx="50" cy="10" r="4" />
    <circle cx="70" cy="10" r="4" />
    <circle cx="90" cy="10" r="4" />
    <circle cx="110" cy="10" r="4" />
    <circle cx="130" cy="10" r="4" />
    <circle cx="150" cy="10" r="4" />
    <circle cx="170" cy="10" r="4" />
    
    <circle cx="10" cy="30" r="4" />
    <circle cx="10" cy="50" r="4" />
    <circle cx="10" cy="70" r="4" />
    <circle cx="10" cy="90" r="4" />
    <circle cx="10" cy="110" r="4" />
    <circle cx="10" cy="130" r="4" />
    <circle cx="10" cy="150" r="4" />
    <circle cx="10" cy="170" r="4" />
    
    <circle cx="30" cy="30" r="4" />
    <circle cx="50" cy="50" r="4" />
    <circle cx="70" cy="70" r="4" />
    <circle cx="90" cy="90" r="4" />
    <circle cx="110" cy="110" r="4" />
    <circle cx="130" cy="130" r="4" />
    <circle cx="150" cy="150" r="4" />
    <circle cx="170" cy="170" r="4" />
  </g>
</svg>
